<?xml version="1.0" standalone="no"?>
<!DOCTYPE svg PUBLIC "-//W3C//DTD SVG 20010904//EN"
 "http://www.w3.org/TR/2001/REC-SVG-20010904/DTD/svg10.dtd">
<svg version="1.0" xmlns="http://www.w3.org/2000/svg"
 width="613.000000pt" height="613.000000pt" viewBox="0 0 613.000000 613.000000"
 preserveAspectRatio="xMidYMid meet">
<metadata>
Created by potrace 1.14, written by Peter Selinger 2001-2017
</metadata>
<g transform="translate(0.000000,613.000000) scale(0.100000,-0.100000)"
fill="#000000" stroke="none">
<path d="M2670 6024 c-19 -2 -114 -11 -210 -20 -234 -21 -453 -55 -695 -109
-201 -45 -415 -102 -477 -128 l-33 -14 -68 -534 c-103 -819 -154 -1314 -203
-1984 -21 -302 -25 -407 -22 -650 6 -401 21 -457 193 -710 345 -508 860 -1070
1326 -1445 325 -262 501 -351 637 -322 190 40 529 291 946 701 402 396 677
720 921 1086 131 196 157 263 176 465 21 223 -10 873 -76 1565 -42 448 -150
1371 -205 1755 -5 36 -10 68 -10 72 -1 28 -582 169 -875 212 -340 50 -457 59
-885 61 -223 2 -421 1 -440 -1z m657 -344 c267 -69 470 -293 519 -571 34 -198
-16 -394 -147 -571 -74 -99 -79 -125 -79 -373 0 -194 -2 -213 -19 -229 -13
-12 -118 -33 -377 -76 -198 -33 -369 -60 -381 -60 -13 0 -32 9 -43 20 -18 18
-20 33 -20 140 0 89 -3 120 -12 120 -7 0 -51 -7 -98 -15 -135 -24 -166 -21
-206 19 l-34 34 0 166 0 166 -70 0 c-75 0 -110 19 -110 60 0 10 41 101 90 201
l90 181 0 97 c0 167 51 319 148 440 185 230 463 323 749 251z m-1063 -2162
c14 -46 35 -118 47 -160 13 -43 25 -75 28 -72 3 3 26 73 51 157 l46 152 48 0
49 0 45 -152 c25 -84 48 -153 52 -153 4 0 27 69 52 153 l45 152 52 3 c37 2 51
-1 51 -10 0 -7 -33 -114 -74 -238 l-74 -225 -48 0 -48 0 -46 140 c-25 77 -48
147 -51 155 -4 8 -29 -55 -56 -140 l-49 -155 -49 0 -48 0 -74 220 c-40 121
-76 228 -79 238 -5 15 2 17 50 17 l55 0 25 -82z m1206 -158 l0 -240 -45 0 -45
0 0 240 0 240 45 0 45 0 0 -240z m385 0 l0 -235 -43 -3 c-31 -2 -44 1 -48 12
-5 14 -9 14 -34 1 -71 -37 -169 -4 -204 68 -24 52 -21 136 7 178 51 76 144
103 201 58 l26 -20 0 84 c0 46 3 87 7 91 4 4 25 6 48 4 l40 -3 0 -235z m-800
66 c73 -56 94 -161 46 -227 -21 -28 -21 -28 -1 -39 22 -12 26 -40 8 -58 -19
-19 -59 -15 -65 7 -4 16 -12 18 -69 13 -76 -6 -112 7 -154 54 -73 84 -54 200
44 260 57 35 138 30 191 -10z m303 -14 c3 -40 2 -42 -26 -42 -16 0 -41 -9 -55
-20 -25 -20 -26 -27 -29 -123 l-3 -102 -45 0 -45 0 -3 163 -2 162 50 0 c36 0
50 -4 50 -14 0 -11 8 -10 38 5 53 27 66 22 70 -29z m-1631 -268 c44 -33 49
-48 24 -73 l-23 -23 -24 23 c-15 14 -40 23 -72 27 -41 4 -52 0 -80 -23 -58
-48 -61 -135 -6 -186 35 -33 119 -34 162 -2 l30 22 22 -24 c28 -30 19 -44 -44
-74 -86 -42 -197 -18 -252 55 -26 34 -29 45 -29 114 0 68 3 81 27 112 42 55
100 80 175 76 43 -3 71 -10 90 -24z m2567 10 c31 -30 8 -69 -36 -62 -26 3 -37
41 -18 64 16 18 35 18 54 -2z m-2414 -59 l0 -65 34 17 c44 20 90 9 119 -29 15
-20 21 -48 25 -122 l5 -96 -42 0 -41 0 0 83 c0 87 -8 107 -44 107 -42 0 -56
-28 -56 -112 l0 -78 -35 0 -35 0 0 180 0 180 35 0 35 0 0 -65z m2150 0 l0 -66
31 17 c41 21 92 11 119 -23 17 -22 20 -40 20 -124 l0 -99 -35 0 -35 0 0 83 c0
88 -8 107 -46 107 -42 0 -54 -25 -54 -111 l0 -79 -35 0 -35 0 0 180 0 180 35
0 35 0 0 -65z m-1779 -51 c42 -21 59 -68 59 -164 l0 -81 -52 1 c-29 0 -69 -2
-88 -6 -49 -8 -90 24 -90 71 0 42 28 71 78 80 77 13 90 25 52 45 -16 8 -28 8
-50 -3 -26 -13 -30 -13 -44 2 -22 24 -21 29 17 51 39 24 78 25 118 4z m270 -3
c22 -18 24 -18 53 0 45 27 82 24 117 -10 28 -29 29 -32 29 -130 l0 -101 -35 0
-35 0 0 83 c0 85 -8 107 -41 107 -33 0 -49 -39 -49 -117 l0 -73 -35 0 -35 0 0
83 c0 85 -8 107 -41 107 -33 0 -49 -39 -49 -117 l0 -73 -35 0 -35 0 0 125 0
125 35 0 c19 0 35 -5 35 -10 0 -6 12 -4 28 4 37 21 65 20 93 -3z m430 4 c16
-9 39 -30 49 -48 40 -64 15 -158 -49 -192 -38 -19 -64 -19 -101 0 l-30 16 0
-66 0 -65 -35 0 -35 0 0 180 0 180 35 0 c19 0 35 -5 35 -10 0 -6 12 -4 28 4
35 20 66 20 103 1z m396 -2 c68 -32 94 -123 54 -189 -21 -35 -75 -64 -118 -64
-62 0 -133 72 -133 135 0 63 71 135 133 135 16 0 45 -8 64 -17z m302 3 c40
-21 51 -56 51 -156 l0 -90 -35 0 -35 0 0 83 c0 88 -8 107 -46 107 -42 0 -54
-25 -54 -111 l0 -79 -35 0 -35 0 0 125 0 125 35 0 c19 0 35 -5 35 -10 0 -6 12
-4 28 4 34 19 56 20 91 2z m241 -1 c34 -17 35 -22 16 -48 -12 -15 -17 -16 -34
-6 -22 14 -52 6 -52 -13 0 -7 24 -24 53 -38 54 -26 65 -46 53 -96 -13 -51
-105 -70 -163 -34 -37 22 -40 32 -17 51 12 10 20 10 35 1 26 -17 66 -15 73 3
4 11 -10 23 -52 43 -51 24 -57 31 -60 60 -7 71 77 114 148 77z m671 -21 c37
-35 52 -88 39 -135 -21 -74 -110 -121 -164 -85 -14 9 -28 16 -31 16 -3 0 -5
-29 -5 -65 l0 -65 -35 0 -35 0 0 180 0 180 34 0 c19 0 36 -5 38 -12 3 -8 12
-7 29 6 34 24 93 15 130 -20z m-1451 -99 l0 -125 -35 0 -35 0 0 125 0 125 35
0 35 0 0 -125z m1190 0 l0 -125 -35 0 -35 0 0 125 0 125 35 0 35 0 0 -125z
m-1894 -620 c27 -8 59 -23 72 -33 l23 -18 -49 -42 c-50 -41 -50 -41 -82 -26
-25 13 -37 14 -57 5 -33 -15 -26 -32 26 -58 72 -37 92 -53 107 -89 29 -70 -23
-168 -105 -196 -65 -21 -156 -14 -218 18 -31 16 -58 34 -60 40 -2 6 16 27 41
47 43 36 45 36 75 21 17 -8 48 -14 68 -12 30 2 38 7 38 23 0 14 -16 28 -55 47
-76 38 -100 68 -100 124 0 54 20 95 58 122 58 42 138 51 218 27z m439 -25 c79
-49 87 -169 17 -243 -41 -44 -79 -59 -162 -66 -64 -5 -75 -9 -78 -26 -2 -11
-8 -37 -13 -57 l-10 -38 -69 0 c-49 0 -70 4 -70 13 0 10 67 334 85 415 5 21 9
22 137 22 114 0 135 -3 163 -20z m485 4 c0 -8 -5 -35 -11 -60 l-11 -44 -109 0
-109 0 0 -25 c0 -25 1 -25 79 -25 l78 0 -12 -52 -11 -53 -79 -3 c-77 -3 -94
-10 -95 -39 0 -10 29 -13 111 -13 110 0 111 0 106 -22 -3 -13 -9 -40 -12 -60
l-7 -38 -184 0 c-101 0 -184 4 -184 8 0 5 20 104 45 221 25 116 45 214 45 216
0 3 81 5 180 5 156 0 180 -2 180 -16z m390 -16 c-4 -18 -11 -45 -14 -60 l-6
-28 -110 0 -110 0 0 -25 c0 -25 1 -25 80 -25 l80 0 -7 -32 c-15 -78 -14 -78
-103 -78 -44 0 -80 -4 -80 -9 0 -5 -3 -16 -6 -25 -5 -14 8 -16 105 -16 63 0
111 -4 111 -10 0 -5 -5 -32 -11 -60 l-11 -50 -185 0 c-182 0 -185 0 -180 21 3
11 25 112 48 225 l43 204 182 0 182 0 -8 -32z m303 16 c41 -21 85 -62 103 -96
8 -15 14 -55 14 -90 0 -106 -67 -194 -177 -234 -24 -8 -85 -13 -171 -14 -122
0 -133 1 -128 18 3 9 23 105 46 212 22 107 42 201 45 208 7 20 227 17 268 -4z
m499 -478 c20 -10 49 -29 63 -42 l26 -24 -52 -44 -53 -44 -27 19 c-56 40 -116
37 -168 -7 -40 -33 -55 -86 -36 -130 16 -38 41 -54 87 -54 40 0 55 9 60 35 2
15 -3 21 -24 23 -29 3 -33 16 -22 60 6 21 11 22 110 22 61 0 104 -4 104 -10 0
-5 -7 -44 -17 -87 -11 -54 -24 -87 -41 -105 -35 -39 -120 -68 -194 -68 -105 0
-196 69 -218 166 -10 43 2 119 24 163 24 45 110 116 163 134 61 21 164 18 215
-7z m-2547 3 c22 -6 54 -26 72 -46 28 -29 33 -42 33 -85 0 -64 -23 -112 -67
-139 -24 -15 -32 -26 -28 -38 15 -37 45 -125 45 -133 0 -4 -33 -8 -74 -8 l-74
0 -18 65 c-17 59 -21 65 -45 65 -25 0 -28 -4 -39 -65 l-12 -65 -74 0 c-41 0
-74 2 -74 4 0 7 91 430 95 444 6 16 203 17 260 1z m542 -3 c-3 -7 -8 -34 -12
-59 l-7 -46 -112 -3 c-107 -3 -111 -4 -114 -25 -3 -22 -1 -23 77 -23 45 0 81
-2 81 -5 0 -2 -5 -27 -11 -55 l-11 -50 -79 0 c-76 0 -80 -1 -89 -26 -6 -14
-10 -27 -10 -30 0 -2 50 -4 110 -4 63 0 110 -4 110 -10 0 -5 -5 -32 -11 -60
l-11 -50 -184 0 c-101 0 -184 2 -184 4 0 7 91 430 95 444 3 9 50 12 186 12
149 0 180 -2 176 -14z m347 -13 c6 -29 66 -418 66 -428 0 -3 -33 -5 -74 -5
l-75 0 -7 45 -6 45 -64 0 -64 0 -22 -45 -22 -45 -78 0 c-43 0 -78 2 -78 4 0 4
95 171 222 389 l39 67 79 0 c78 0 78 0 84 -27z m407 16 c59 -13 124 -65 146
-116 20 -48 16 -130 -8 -180 -28 -58 -100 -120 -162 -138 -44 -13 -297 -23
-297 -12 0 8 91 433 95 445 6 16 153 16 226 1z m379 -4 c0 -18 -89 -438 -94
-443 -2 -1 -35 -2 -73 0 l-70 3 48 225 c27 124 48 226 49 228 0 1 32 2 70 2
55 0 70 -3 70 -15z m221 -90 c34 -58 65 -105 69 -105 4 0 15 39 24 88 26 133
18 122 97 122 53 0 69 -3 69 -14 0 -13 -72 -366 -86 -423 -6 -22 -10 -24 -67
-21 l-60 3 -61 103 c-33 56 -63 102 -66 102 -4 0 -12 -30 -19 -67 -7 -38 -16
-85 -22 -105 l-10 -38 -69 0 c-52 0 -70 3 -70 13 0 8 20 109 45 226 25 116 45
214 45 216 0 3 27 5 60 5 l60 0 61 -105z"/>
<path d="M2700 5085 c0 -195 4 -355 9 -355 61 0 307 -62 364 -92 16 -8 17 10
15 349 l-3 357 -90 32 c-49 18 -121 37 -160 44 -38 6 -85 13 -102 16 l-33 5 0
-356z"/>
<path d="M3455 5433 c-68 -8 -184 -37 -248 -61 -51 -18 -71 -31 -78 -49 -13
-36 -12 -683 2 -683 6 0 47 13 92 29 45 16 127 36 182 46 55 9 101 18 102 19
1 1 3 159 3 352 1 280 -1 349 -12 350 -7 1 -26 -1 -43 -3z"/>
<path d="M2610 4975 l0 -355 198 0 c118 0 191 4 182 9 -26 16 -139 42 -234 54
l-91 13 -3 317 -2 317 -25 0 -25 0 0 -355z"/>
<path d="M3548 5013 l-3 -317 -97 -13 c-54 -7 -130 -24 -170 -37 l-73 -24 198
-1 197 -1 0 355 0 355 -25 0 -25 0 -2 -317z"/>
<path d="M3625 3348 c-23 -27 -26 -39 -22 -72 15 -111 157 -99 157 13 0 85
-82 122 -135 59z"/>
<path d="M2899 3351 c-20 -20 -29 -39 -29 -61 0 -40 47 -90 85 -90 40 0 75 41
75 89 0 32 -6 44 -31 65 -40 34 -64 33 -100 -3z"/>
<path d="M2165 2896 c-24 -17 -13 -46 18 -46 28 0 47 17 47 42 0 22 -37 24
-65 4z"/>
<path d="M2845 2975 c-14 -13 -25 -36 -25 -50 0 -29 40 -75 65 -75 25 0 65 46
65 75 0 29 -40 75 -65 75 -9 0 -27 -11 -40 -25z"/>
<path d="M3253 2982 c-32 -20 -32 -94 0 -114 40 -26 97 8 97 57 0 49 -57 83
-97 57z"/>
<path d="M4430 2982 c-44 -35 -18 -132 35 -132 7 0 24 9 39 21 36 28 36 80 0
108 -33 26 -45 26 -74 3z"/>
<path d="M2666 2155 c-15 -39 -7 -55 27 -55 41 0 70 20 66 46 -5 26 -83 34
-93 9z"/>
<path d="M3857 2086 c-9 -46 -17 -89 -17 -95 0 -6 17 -11 39 -11 73 0 131 76
108 143 -11 33 -34 47 -79 47 l-33 0 -18 -84z"/>
<path d="M1837 1683 c-2 -5 -7 -20 -11 -35 -6 -27 -5 -28 33 -28 54 0 71 8 71
35 0 13 -7 26 -16 29 -22 8 -72 8 -77 -1z"/>
<path d="M2722 1615 c-12 -25 -22 -48 -22 -50 0 -3 14 -5 30 -5 29 0 30 1 30
50 0 28 -4 50 -8 50 -4 0 -18 -20 -30 -45z"/>
<path d="M3165 1678 c-3 -7 -14 -52 -24 -100 l-19 -88 34 0 c87 0 147 79 118
155 -13 34 -99 60 -109 33z"/>
</g>
</svg>
