<svg width="18" height="18" viewBox="0 0 18 18" fill="none" xmlns="http://www.w3.org/2000/svg">
<rect width="18" height="18" fill="white"/>
<path d="M9.65287 11.3032L7.74787 9.4207L7.77037 9.3982C9.07537 7.9432 10.0054 6.2707 10.5529 4.5007H12.7504V3.0007H7.50037V1.5007H6.00037V3.0007H0.750366V4.4932H9.12787C8.62537 5.9407 7.83037 7.3132 6.75037 8.5132C6.05287 7.7407 5.47537 6.8932 5.01787 6.0007H3.51787C4.06537 7.2232 4.81537 8.3782 5.75287 9.4207L1.93537 13.1857L3.00037 14.2507L6.75037 10.5007L9.08287 12.8332L9.65287 11.3032ZM13.8754 7.5007H12.3754L9.00037 16.5007H10.5004L11.3404 14.2507H14.9029L15.7504 16.5007H17.2504L13.8754 7.5007ZM11.9104 12.7507L13.1254 9.5032L14.3404 12.7507H11.9104Z" fill="#1890FF"/>
</svg>
